<mxfile host="app.diagrams.net" modified="2023-12-03T18:42:40.672Z" agent="Mozilla/5.0 (Windows NT 10.0; Win64; x64) AppleWebKit/537.36 (KHTML, like Gecko) Chrome/119.0.0.0 Safari/537.36" etag="Qj3o94yzv8eoe5EdWv5v" version="22.1.5" type="google">
  <diagram id="C5RBs43oDa-KdzZeNtuy" name="Page-1">
    <mxGraphModel grid="0" page="1" gridSize="10" guides="1" tooltips="1" connect="1" arrows="1" fold="1" pageScale="1" pageWidth="827" pageHeight="1169" math="0" shadow="0">
      <root>
        <mxCell id="WIyWlLk6GJQsqaUBKTNV-0" />
        <mxCell id="WIyWlLk6GJQsqaUBKTNV-1" parent="WIyWlLk6GJQsqaUBKTNV-0" />
        <mxCell id="zkfFHV4jXpPFQw0GAbJ--6" value="System Operator" style="swimlane;fontStyle=0;align=center;verticalAlign=top;childLayout=stackLayout;horizontal=1;startSize=26;horizontalStack=0;resizeParent=1;resizeLast=0;collapsible=1;marginBottom=0;rounded=0;shadow=0;strokeWidth=1;" vertex="1" parent="WIyWlLk6GJQsqaUBKTNV-1">
          <mxGeometry x="330" y="258" width="240" height="304" as="geometry">
            <mxRectangle x="130" y="380" width="160" height="26" as="alternateBounds" />
          </mxGeometry>
        </mxCell>
        <mxCell id="zkfFHV4jXpPFQw0GAbJ--7" value="Employee ID" style="text;align=left;verticalAlign=top;spacingLeft=4;spacingRight=4;overflow=hidden;rotatable=0;points=[[0,0.5],[1,0.5]];portConstraint=eastwest;" vertex="1" parent="zkfFHV4jXpPFQw0GAbJ--6">
          <mxGeometry y="26" width="240" height="26" as="geometry" />
        </mxCell>
        <mxCell id="zkfFHV4jXpPFQw0GAbJ--8" value="Salary" style="text;align=left;verticalAlign=top;spacingLeft=4;spacingRight=4;overflow=hidden;rotatable=0;points=[[0,0.5],[1,0.5]];portConstraint=eastwest;rounded=0;shadow=0;html=0;" vertex="1" parent="zkfFHV4jXpPFQw0GAbJ--6">
          <mxGeometry y="52" width="240" height="26" as="geometry" />
        </mxCell>
        <mxCell id="VhDTAXXoxM6BZPIKAZ-I-0" value="Login In ID" style="text;align=left;verticalAlign=top;spacingLeft=4;spacingRight=4;overflow=hidden;rotatable=0;points=[[0,0.5],[1,0.5]];portConstraint=eastwest;rounded=0;shadow=0;html=0;" vertex="1" parent="zkfFHV4jXpPFQw0GAbJ--6">
          <mxGeometry y="78" width="240" height="26" as="geometry" />
        </mxCell>
        <mxCell id="VhDTAXXoxM6BZPIKAZ-I-1" value="Password" style="text;align=left;verticalAlign=top;spacingLeft=4;spacingRight=4;overflow=hidden;rotatable=0;points=[[0,0.5],[1,0.5]];portConstraint=eastwest;rounded=0;shadow=0;html=0;" vertex="1" parent="zkfFHV4jXpPFQw0GAbJ--6">
          <mxGeometry y="104" width="240" height="26" as="geometry" />
        </mxCell>
        <mxCell id="zkfFHV4jXpPFQw0GAbJ--9" value="" style="line;html=1;strokeWidth=1;align=left;verticalAlign=middle;spacingTop=-1;spacingLeft=3;spacingRight=3;rotatable=0;labelPosition=right;points=[];portConstraint=eastwest;" vertex="1" parent="zkfFHV4jXpPFQw0GAbJ--6">
          <mxGeometry y="130" width="240" height="8" as="geometry" />
        </mxCell>
        <mxCell id="zkfFHV4jXpPFQw0GAbJ--10" value="Checks Mission status" style="text;align=left;verticalAlign=top;spacingLeft=4;spacingRight=4;overflow=hidden;rotatable=0;points=[[0,0.5],[1,0.5]];portConstraint=eastwest;fontStyle=0" vertex="1" parent="zkfFHV4jXpPFQw0GAbJ--6">
          <mxGeometry y="138" width="240" height="26" as="geometry" />
        </mxCell>
        <mxCell id="zkfFHV4jXpPFQw0GAbJ--11" value="Checks Vehicle Status" style="text;align=left;verticalAlign=top;spacingLeft=4;spacingRight=4;overflow=hidden;rotatable=0;points=[[0,0.5],[1,0.5]];portConstraint=eastwest;" vertex="1" parent="zkfFHV4jXpPFQw0GAbJ--6">
          <mxGeometry y="164" width="240" height="28" as="geometry" />
        </mxCell>
        <mxCell id="jl5r_qwdWF5hizrky0wu-7" value="Checks Weather Status" style="text;align=left;verticalAlign=top;spacingLeft=4;spacingRight=4;overflow=hidden;rotatable=0;points=[[0,0.5],[1,0.5]];portConstraint=eastwest;" vertex="1" parent="zkfFHV4jXpPFQw0GAbJ--6">
          <mxGeometry y="192" width="240" height="28" as="geometry" />
        </mxCell>
        <mxCell id="jl5r_qwdWF5hizrky0wu-8" value="Operates the Rover" style="text;align=left;verticalAlign=top;spacingLeft=4;spacingRight=4;overflow=hidden;rotatable=0;points=[[0,0.5],[1,0.5]];portConstraint=eastwest;" vertex="1" parent="zkfFHV4jXpPFQw0GAbJ--6">
          <mxGeometry y="220" width="240" height="28" as="geometry" />
        </mxCell>
        <mxCell id="jl5r_qwdWF5hizrky0wu-9" value="Overrides Functions and Commands" style="text;align=left;verticalAlign=top;spacingLeft=4;spacingRight=4;overflow=hidden;rotatable=0;points=[[0,0.5],[1,0.5]];portConstraint=eastwest;" vertex="1" parent="zkfFHV4jXpPFQw0GAbJ--6">
          <mxGeometry y="248" width="240" height="28" as="geometry" />
        </mxCell>
        <mxCell id="jl5r_qwdWF5hizrky0wu-10" value="Receives Sample DataÂ " style="text;align=left;verticalAlign=top;spacingLeft=4;spacingRight=4;overflow=hidden;rotatable=0;points=[[0,0.5],[1,0.5]];portConstraint=eastwest;" vertex="1" parent="zkfFHV4jXpPFQw0GAbJ--6">
          <mxGeometry y="276" width="240" height="28" as="geometry" />
        </mxCell>
        <mxCell id="VhDTAXXoxM6BZPIKAZ-I-70" style="edgeStyle=orthogonalEdgeStyle;rounded=0;orthogonalLoop=1;jettySize=auto;html=1;exitX=1;exitY=1;exitDx=0;exitDy=0;entryX=0.5;entryY=0;entryDx=0;entryDy=0;" edge="1" parent="WIyWlLk6GJQsqaUBKTNV-1" source="zkfFHV4jXpPFQw0GAbJ--13" target="VhDTAXXoxM6BZPIKAZ-I-57">
          <mxGeometry relative="1" as="geometry" />
        </mxCell>
        <mxCell id="VhDTAXXoxM6BZPIKAZ-I-85" value="Performs" style="edgeLabel;html=1;align=center;verticalAlign=middle;resizable=0;points=[];" connectable="0" vertex="1" parent="VhDTAXXoxM6BZPIKAZ-I-70">
          <mxGeometry x="0.131" y="1" relative="1" as="geometry">
            <mxPoint as="offset" />
          </mxGeometry>
        </mxCell>
        <mxCell id="zkfFHV4jXpPFQw0GAbJ--13" value="Maintenance Operator" style="swimlane;fontStyle=0;align=center;verticalAlign=top;childLayout=stackLayout;horizontal=1;startSize=26;horizontalStack=0;resizeParent=1;resizeLast=0;collapsible=1;marginBottom=0;rounded=0;shadow=0;strokeWidth=1;" vertex="1" parent="WIyWlLk6GJQsqaUBKTNV-1">
          <mxGeometry x="400" y="50" width="176" height="160" as="geometry">
            <mxRectangle x="340" y="380" width="170" height="26" as="alternateBounds" />
          </mxGeometry>
        </mxCell>
        <mxCell id="zkfFHV4jXpPFQw0GAbJ--14" value="Employee ID&#xa;&#xa;" style="text;align=left;verticalAlign=top;spacingLeft=4;spacingRight=4;overflow=hidden;rotatable=1;points=[[0,0.5],[1,0.5]];portConstraint=eastwest;movable=1;resizable=1;deletable=1;editable=1;locked=0;connectable=1;" vertex="1" parent="zkfFHV4jXpPFQw0GAbJ--13">
          <mxGeometry y="26" width="176" height="24" as="geometry" />
        </mxCell>
        <mxCell id="jl5r_qwdWF5hizrky0wu-3" value="Salary" style="text;align=left;verticalAlign=top;spacingLeft=4;spacingRight=4;overflow=hidden;rotatable=1;points=[[0,0.5],[1,0.5]];portConstraint=eastwest;movable=1;resizable=1;deletable=1;editable=1;locked=0;connectable=1;" vertex="1" parent="zkfFHV4jXpPFQw0GAbJ--13">
          <mxGeometry y="50" width="176" height="24" as="geometry" />
        </mxCell>
        <mxCell id="zkfFHV4jXpPFQw0GAbJ--15" value="" style="line;html=1;strokeWidth=1;align=left;verticalAlign=middle;spacingTop=-1;spacingLeft=3;spacingRight=3;rotatable=1;labelPosition=right;points=[];portConstraint=eastwest;movable=1;resizable=1;deletable=1;editable=1;locked=0;connectable=1;" vertex="1" parent="zkfFHV4jXpPFQw0GAbJ--13">
          <mxGeometry y="74" width="176" height="8" as="geometry" />
        </mxCell>
        <mxCell id="jl5r_qwdWF5hizrky0wu-4" value="Checks System Integrity" style="text;align=left;verticalAlign=top;spacingLeft=4;spacingRight=4;overflow=hidden;rotatable=1;points=[[0,0.5],[1,0.5]];portConstraint=eastwest;movable=1;resizable=1;deletable=1;editable=1;locked=0;connectable=1;" vertex="1" parent="zkfFHV4jXpPFQw0GAbJ--13">
          <mxGeometry y="82" width="176" height="24" as="geometry" />
        </mxCell>
        <mxCell id="jl5r_qwdWF5hizrky0wu-5" value="Performs repairments" style="text;align=left;verticalAlign=top;spacingLeft=4;spacingRight=4;overflow=hidden;rotatable=1;points=[[0,0.5],[1,0.5]];portConstraint=eastwest;movable=1;resizable=1;deletable=1;editable=1;locked=0;connectable=1;" vertex="1" parent="zkfFHV4jXpPFQw0GAbJ--13">
          <mxGeometry y="106" width="176" height="24" as="geometry" />
        </mxCell>
        <mxCell id="jl5r_qwdWF5hizrky0wu-6" value="Sends report to Database" style="text;align=left;verticalAlign=top;spacingLeft=4;spacingRight=4;overflow=hidden;rotatable=1;points=[[0,0.5],[1,0.5]];portConstraint=eastwest;movable=1;resizable=1;deletable=1;editable=1;locked=0;connectable=1;" vertex="1" parent="zkfFHV4jXpPFQw0GAbJ--13">
          <mxGeometry y="130" width="176" height="24" as="geometry" />
        </mxCell>
        <mxCell id="VhDTAXXoxM6BZPIKAZ-I-2" value="Mission Status" style="swimlane;fontStyle=0;align=center;verticalAlign=top;childLayout=stackLayout;horizontal=1;startSize=26;horizontalStack=0;resizeParent=1;resizeLast=0;collapsible=1;marginBottom=0;rounded=0;shadow=0;strokeWidth=1;" vertex="1" parent="WIyWlLk6GJQsqaUBKTNV-1">
          <mxGeometry x="940" y="330" width="176" height="160" as="geometry">
            <mxRectangle x="340" y="380" width="170" height="26" as="alternateBounds" />
          </mxGeometry>
        </mxCell>
        <mxCell id="VhDTAXXoxM6BZPIKAZ-I-3" value="Employee ID" style="text;align=left;verticalAlign=top;spacingLeft=4;spacingRight=4;overflow=hidden;rotatable=1;points=[[0,0.5],[1,0.5]];portConstraint=eastwest;movable=1;resizable=1;deletable=1;editable=1;locked=0;connectable=1;" vertex="1" parent="VhDTAXXoxM6BZPIKAZ-I-2">
          <mxGeometry y="26" width="176" height="24" as="geometry" />
        </mxCell>
        <mxCell id="VhDTAXXoxM6BZPIKAZ-I-4" value="Salary" style="text;align=left;verticalAlign=top;spacingLeft=4;spacingRight=4;overflow=hidden;rotatable=1;points=[[0,0.5],[1,0.5]];portConstraint=eastwest;movable=1;resizable=1;deletable=1;editable=1;locked=0;connectable=1;" vertex="1" parent="VhDTAXXoxM6BZPIKAZ-I-2">
          <mxGeometry y="50" width="176" height="24" as="geometry" />
        </mxCell>
        <mxCell id="VhDTAXXoxM6BZPIKAZ-I-5" value="" style="line;html=1;strokeWidth=1;align=left;verticalAlign=middle;spacingTop=-1;spacingLeft=3;spacingRight=3;rotatable=1;labelPosition=right;points=[];portConstraint=eastwest;movable=1;resizable=1;deletable=1;editable=1;locked=0;connectable=1;" vertex="1" parent="VhDTAXXoxM6BZPIKAZ-I-2">
          <mxGeometry y="74" width="176" height="8" as="geometry" />
        </mxCell>
        <mxCell id="VhDTAXXoxM6BZPIKAZ-I-6" value="Checks System Integrity" style="text;align=left;verticalAlign=top;spacingLeft=4;spacingRight=4;overflow=hidden;rotatable=1;points=[[0,0.5],[1,0.5]];portConstraint=eastwest;movable=1;resizable=1;deletable=1;editable=1;locked=0;connectable=1;" vertex="1" parent="VhDTAXXoxM6BZPIKAZ-I-2">
          <mxGeometry y="82" width="176" height="24" as="geometry" />
        </mxCell>
        <mxCell id="VhDTAXXoxM6BZPIKAZ-I-7" value="Performs repairments" style="text;align=left;verticalAlign=top;spacingLeft=4;spacingRight=4;overflow=hidden;rotatable=1;points=[[0,0.5],[1,0.5]];portConstraint=eastwest;movable=1;resizable=1;deletable=1;editable=1;locked=0;connectable=1;" vertex="1" parent="VhDTAXXoxM6BZPIKAZ-I-2">
          <mxGeometry y="106" width="176" height="24" as="geometry" />
        </mxCell>
        <mxCell id="VhDTAXXoxM6BZPIKAZ-I-8" value="Sends report to Database" style="text;align=left;verticalAlign=top;spacingLeft=4;spacingRight=4;overflow=hidden;rotatable=1;points=[[0,0.5],[1,0.5]];portConstraint=eastwest;movable=1;resizable=1;deletable=1;editable=1;locked=0;connectable=1;" vertex="1" parent="VhDTAXXoxM6BZPIKAZ-I-2">
          <mxGeometry y="130" width="176" height="24" as="geometry" />
        </mxCell>
        <mxCell id="VhDTAXXoxM6BZPIKAZ-I-69" value="" style="edgeStyle=orthogonalEdgeStyle;rounded=0;orthogonalLoop=1;jettySize=auto;html=1;" edge="1" parent="WIyWlLk6GJQsqaUBKTNV-1" source="VhDTAXXoxM6BZPIKAZ-I-68" target="VhDTAXXoxM6BZPIKAZ-I-9">
          <mxGeometry relative="1" as="geometry" />
        </mxCell>
        <mxCell id="VhDTAXXoxM6BZPIKAZ-I-9" value="Hardware Diagnosis" style="swimlane;fontStyle=0;align=center;verticalAlign=top;childLayout=stackLayout;horizontal=1;startSize=26;horizontalStack=0;resizeParent=1;resizeLast=0;collapsible=1;marginBottom=0;rounded=0;shadow=0;strokeWidth=1;" vertex="1" parent="WIyWlLk6GJQsqaUBKTNV-1">
          <mxGeometry x="720" y="129" width="176" height="178" as="geometry">
            <mxRectangle x="340" y="380" width="170" height="26" as="alternateBounds" />
          </mxGeometry>
        </mxCell>
        <mxCell id="VhDTAXXoxM6BZPIKAZ-I-10" value="-Sensors: Sensor[]" style="text;align=left;verticalAlign=top;spacingLeft=4;spacingRight=4;overflow=hidden;rotatable=1;points=[[0,0.5],[1,0.5]];portConstraint=eastwest;movable=1;resizable=1;deletable=1;editable=1;locked=0;connectable=1;" vertex="1" parent="VhDTAXXoxM6BZPIKAZ-I-9">
          <mxGeometry y="26" width="176" height="24" as="geometry" />
        </mxCell>
        <mxCell id="VhDTAXXoxM6BZPIKAZ-I-12" value="" style="line;html=1;strokeWidth=1;align=left;verticalAlign=middle;spacingTop=-1;spacingLeft=3;spacingRight=3;rotatable=1;labelPosition=right;points=[];portConstraint=eastwest;movable=1;resizable=1;deletable=1;editable=1;locked=0;connectable=1;" vertex="1" parent="VhDTAXXoxM6BZPIKAZ-I-9">
          <mxGeometry y="50" width="176" height="8" as="geometry" />
        </mxCell>
        <mxCell id="VhDTAXXoxM6BZPIKAZ-I-13" value="+reportFailure(): void" style="text;align=left;verticalAlign=top;spacingLeft=4;spacingRight=4;overflow=hidden;rotatable=1;points=[[0,0.5],[1,0.5]];portConstraint=eastwest;movable=1;resizable=1;deletable=1;editable=1;locked=0;connectable=1;" vertex="1" parent="VhDTAXXoxM6BZPIKAZ-I-9">
          <mxGeometry y="58" width="176" height="24" as="geometry" />
        </mxCell>
        <mxCell id="VhDTAXXoxM6BZPIKAZ-I-14" value="+rebootSystem(): boolean" style="text;align=left;verticalAlign=top;spacingLeft=4;spacingRight=4;overflow=hidden;rotatable=1;points=[[0,0.5],[1,0.5]];portConstraint=eastwest;movable=1;resizable=1;deletable=1;editable=1;locked=0;connectable=1;" vertex="1" parent="VhDTAXXoxM6BZPIKAZ-I-9">
          <mxGeometry y="82" width="176" height="24" as="geometry" />
        </mxCell>
        <mxCell id="VhDTAXXoxM6BZPIKAZ-I-15" value="+repairSystem(): boolean" style="text;align=left;verticalAlign=top;spacingLeft=4;spacingRight=4;overflow=hidden;rotatable=1;points=[[0,0.5],[1,0.5]];portConstraint=eastwest;movable=1;resizable=1;deletable=1;editable=1;locked=0;connectable=1;" vertex="1" parent="VhDTAXXoxM6BZPIKAZ-I-9">
          <mxGeometry y="106" width="176" height="24" as="geometry" />
        </mxCell>
        <mxCell id="VhDTAXXoxM6BZPIKAZ-I-39" value="+ResumeMission(): void" style="text;align=left;verticalAlign=top;spacingLeft=4;spacingRight=4;overflow=hidden;rotatable=1;points=[[0,0.5],[1,0.5]];portConstraint=eastwest;movable=1;resizable=1;deletable=1;editable=1;locked=0;connectable=1;" vertex="1" parent="VhDTAXXoxM6BZPIKAZ-I-9">
          <mxGeometry y="130" width="176" height="24" as="geometry" />
        </mxCell>
        <mxCell id="VhDTAXXoxM6BZPIKAZ-I-118" style="edgeStyle=orthogonalEdgeStyle;rounded=0;orthogonalLoop=1;jettySize=auto;html=1;exitX=0.75;exitY=0;exitDx=0;exitDy=0;entryX=1;entryY=0.5;entryDx=0;entryDy=0;" edge="1" parent="WIyWlLk6GJQsqaUBKTNV-1" source="VhDTAXXoxM6BZPIKAZ-I-16" target="VhDTAXXoxM6BZPIKAZ-I-49">
          <mxGeometry relative="1" as="geometry">
            <Array as="points">
              <mxPoint x="1230" y="129" />
              <mxPoint x="1230" y="-72" />
            </Array>
          </mxGeometry>
        </mxCell>
        <mxCell id="VhDTAXXoxM6BZPIKAZ-I-16" value="Weather Diagnosis" style="swimlane;fontStyle=0;align=center;verticalAlign=top;childLayout=stackLayout;horizontal=1;startSize=26;horizontalStack=0;resizeParent=1;resizeLast=0;collapsible=1;marginBottom=0;rounded=0;shadow=0;strokeWidth=1;" vertex="1" parent="WIyWlLk6GJQsqaUBKTNV-1">
          <mxGeometry x="1153" y="129" width="207" height="160" as="geometry">
            <mxRectangle x="340" y="380" width="170" height="26" as="alternateBounds" />
          </mxGeometry>
        </mxCell>
        <mxCell id="VhDTAXXoxM6BZPIKAZ-I-17" value="-WeatherDiagnosis: String" style="text;align=left;verticalAlign=top;spacingLeft=4;spacingRight=4;overflow=hidden;rotatable=1;points=[[0,0.5],[1,0.5]];portConstraint=eastwest;movable=1;resizable=1;deletable=1;editable=1;locked=0;connectable=1;" vertex="1" parent="VhDTAXXoxM6BZPIKAZ-I-16">
          <mxGeometry y="26" width="207" height="24" as="geometry" />
        </mxCell>
        <mxCell id="VhDTAXXoxM6BZPIKAZ-I-19" value="" style="line;html=1;strokeWidth=1;align=left;verticalAlign=middle;spacingTop=-1;spacingLeft=3;spacingRight=3;rotatable=1;labelPosition=right;points=[];portConstraint=eastwest;movable=1;resizable=1;deletable=1;editable=1;locked=0;connectable=1;" vertex="1" parent="VhDTAXXoxM6BZPIKAZ-I-16">
          <mxGeometry y="50" width="207" height="8" as="geometry" />
        </mxCell>
        <mxCell id="VhDTAXXoxM6BZPIKAZ-I-20" value="+performsWeatherDiagnosis(): String" style="text;align=left;verticalAlign=top;spacingLeft=4;spacingRight=4;overflow=hidden;rotatable=1;points=[[0,0.5],[1,0.5]];portConstraint=eastwest;movable=1;resizable=1;deletable=1;editable=1;locked=0;connectable=1;" vertex="1" parent="VhDTAXXoxM6BZPIKAZ-I-16">
          <mxGeometry y="58" width="207" height="24" as="geometry" />
        </mxCell>
        <mxCell id="VhDTAXXoxM6BZPIKAZ-I-21" value="+getDiagnosis(): String" style="text;align=left;verticalAlign=top;spacingLeft=4;spacingRight=4;overflow=hidden;rotatable=1;points=[[0,0.5],[1,0.5]];portConstraint=eastwest;movable=1;resizable=1;deletable=1;editable=1;locked=0;connectable=1;" vertex="1" parent="VhDTAXXoxM6BZPIKAZ-I-16">
          <mxGeometry y="82" width="207" height="24" as="geometry" />
        </mxCell>
        <mxCell id="VhDTAXXoxM6BZPIKAZ-I-36" style="edgeStyle=orthogonalEdgeStyle;rounded=0;orthogonalLoop=1;jettySize=auto;html=1;entryX=0.25;entryY=0;entryDx=0;entryDy=0;exitX=1;exitY=0.5;exitDx=0;exitDy=0;" edge="1" parent="WIyWlLk6GJQsqaUBKTNV-1" source="VhDTAXXoxM6BZPIKAZ-I-35" target="VhDTAXXoxM6BZPIKAZ-I-2">
          <mxGeometry relative="1" as="geometry" />
        </mxCell>
        <mxCell id="VhDTAXXoxM6BZPIKAZ-I-35" value="" style="rhombus;whiteSpace=wrap;html=1;" vertex="1" parent="WIyWlLk6GJQsqaUBKTNV-1">
          <mxGeometry x="896" y="188.5" width="44" height="41" as="geometry" />
        </mxCell>
        <mxCell id="VhDTAXXoxM6BZPIKAZ-I-38" style="edgeStyle=orthogonalEdgeStyle;rounded=0;orthogonalLoop=1;jettySize=auto;html=1;exitX=0;exitY=0.5;exitDx=0;exitDy=0;entryX=0.75;entryY=0;entryDx=0;entryDy=0;" edge="1" parent="WIyWlLk6GJQsqaUBKTNV-1" source="VhDTAXXoxM6BZPIKAZ-I-37" target="VhDTAXXoxM6BZPIKAZ-I-2">
          <mxGeometry relative="1" as="geometry" />
        </mxCell>
        <mxCell id="VhDTAXXoxM6BZPIKAZ-I-37" value="" style="rhombus;whiteSpace=wrap;html=1;" vertex="1" parent="WIyWlLk6GJQsqaUBKTNV-1">
          <mxGeometry x="1107" y="186.5" width="46" height="43" as="geometry" />
        </mxCell>
        <mxCell id="VhDTAXXoxM6BZPIKAZ-I-23" value="Visibility and Mobility" style="swimlane;fontStyle=0;align=center;verticalAlign=top;childLayout=stackLayout;horizontal=1;startSize=26;horizontalStack=0;resizeParent=1;resizeLast=0;collapsible=1;marginBottom=0;rounded=0;shadow=0;strokeWidth=1;" vertex="1" parent="WIyWlLk6GJQsqaUBKTNV-1">
          <mxGeometry x="886" y="-22" width="230" height="130" as="geometry">
            <mxRectangle x="340" y="380" width="170" height="26" as="alternateBounds" />
          </mxGeometry>
        </mxCell>
        <mxCell id="VhDTAXXoxM6BZPIKAZ-I-24" value="-Diagnosis: String" style="text;align=left;verticalAlign=top;spacingLeft=4;spacingRight=4;overflow=hidden;rotatable=1;points=[[0,0.5],[1,0.5]];portConstraint=eastwest;movable=1;resizable=1;deletable=1;editable=1;locked=0;connectable=1;" vertex="1" parent="VhDTAXXoxM6BZPIKAZ-I-23">
          <mxGeometry y="26" width="230" height="24" as="geometry" />
        </mxCell>
        <mxCell id="VhDTAXXoxM6BZPIKAZ-I-26" value="" style="line;html=1;strokeWidth=1;align=left;verticalAlign=middle;spacingTop=-1;spacingLeft=3;spacingRight=3;rotatable=1;labelPosition=right;points=[];portConstraint=eastwest;movable=1;resizable=1;deletable=1;editable=1;locked=0;connectable=1;" vertex="1" parent="VhDTAXXoxM6BZPIKAZ-I-23">
          <mxGeometry y="50" width="230" height="8" as="geometry" />
        </mxCell>
        <mxCell id="VhDTAXXoxM6BZPIKAZ-I-27" value="+performsVisibiltyDiagnosis(): String" style="text;align=left;verticalAlign=top;spacingLeft=4;spacingRight=4;overflow=hidden;rotatable=1;points=[[0,0.5],[1,0.5]];portConstraint=eastwest;movable=1;resizable=1;deletable=1;editable=1;locked=0;connectable=1;" vertex="1" parent="VhDTAXXoxM6BZPIKAZ-I-23">
          <mxGeometry y="58" width="230" height="24" as="geometry" />
        </mxCell>
        <mxCell id="VhDTAXXoxM6BZPIKAZ-I-28" value="+performsMobilityDiagnosis(): String" style="text;align=left;verticalAlign=top;spacingLeft=4;spacingRight=4;overflow=hidden;rotatable=1;points=[[0,0.5],[1,0.5]];portConstraint=eastwest;movable=1;resizable=1;deletable=1;editable=1;locked=0;connectable=1;" vertex="1" parent="VhDTAXXoxM6BZPIKAZ-I-23">
          <mxGeometry y="82" width="230" height="24" as="geometry" />
        </mxCell>
        <mxCell id="VhDTAXXoxM6BZPIKAZ-I-29" value="+getDiagnosis(): String" style="text;align=left;verticalAlign=top;spacingLeft=4;spacingRight=4;overflow=hidden;rotatable=1;points=[[0,0.5],[1,0.5]];portConstraint=eastwest;movable=1;resizable=1;deletable=1;editable=1;locked=0;connectable=1;" vertex="1" parent="VhDTAXXoxM6BZPIKAZ-I-23">
          <mxGeometry y="106" width="230" height="24" as="geometry" />
        </mxCell>
        <mxCell id="VhDTAXXoxM6BZPIKAZ-I-114" style="edgeStyle=orthogonalEdgeStyle;rounded=0;orthogonalLoop=1;jettySize=auto;html=1;exitX=1;exitY=0.5;exitDx=0;exitDy=0;entryX=0.5;entryY=0;entryDx=0;entryDy=0;" edge="1" parent="WIyWlLk6GJQsqaUBKTNV-1" source="VhDTAXXoxM6BZPIKAZ-I-41" target="VhDTAXXoxM6BZPIKAZ-I-2">
          <mxGeometry relative="1" as="geometry" />
        </mxCell>
        <mxCell id="VhDTAXXoxM6BZPIKAZ-I-41" value="" style="rhombus;whiteSpace=wrap;html=1;" vertex="1" parent="WIyWlLk6GJQsqaUBKTNV-1">
          <mxGeometry x="962" y="108.5" width="46" height="43" as="geometry" />
        </mxCell>
        <mxCell id="VhDTAXXoxM6BZPIKAZ-I-54" style="edgeStyle=orthogonalEdgeStyle;rounded=0;orthogonalLoop=1;jettySize=auto;html=1;entryX=0.25;entryY=0;entryDx=0;entryDy=0;" edge="1" parent="WIyWlLk6GJQsqaUBKTNV-1" source="VhDTAXXoxM6BZPIKAZ-I-43" target="VhDTAXXoxM6BZPIKAZ-I-9">
          <mxGeometry relative="1" as="geometry">
            <Array as="points">
              <mxPoint x="764" y="-130" />
              <mxPoint x="764" y="-130" />
            </Array>
          </mxGeometry>
        </mxCell>
        <mxCell id="VhDTAXXoxM6BZPIKAZ-I-43" value="Database" style="swimlane;fontStyle=0;align=center;verticalAlign=top;childLayout=stackLayout;horizontal=1;startSize=26;horizontalStack=0;resizeParent=1;resizeLast=0;collapsible=1;marginBottom=0;rounded=0;shadow=0;strokeWidth=1;" vertex="1" parent="WIyWlLk6GJQsqaUBKTNV-1">
          <mxGeometry x="782" y="-190" width="180" height="130" as="geometry">
            <mxRectangle x="340" y="380" width="170" height="26" as="alternateBounds" />
          </mxGeometry>
        </mxCell>
        <mxCell id="VhDTAXXoxM6BZPIKAZ-I-44" value="-data: int,string,boolean" style="text;align=left;verticalAlign=top;spacingLeft=4;spacingRight=4;overflow=hidden;rotatable=1;points=[[0,0.5],[1,0.5]];portConstraint=eastwest;movable=1;resizable=1;deletable=1;editable=1;locked=0;connectable=1;" vertex="1" parent="VhDTAXXoxM6BZPIKAZ-I-43">
          <mxGeometry y="26" width="180" height="24" as="geometry" />
        </mxCell>
        <mxCell id="VhDTAXXoxM6BZPIKAZ-I-46" value="" style="line;html=1;strokeWidth=1;align=left;verticalAlign=middle;spacingTop=-1;spacingLeft=3;spacingRight=3;rotatable=1;labelPosition=right;points=[];portConstraint=eastwest;movable=1;resizable=1;deletable=1;editable=1;locked=0;connectable=1;" vertex="1" parent="VhDTAXXoxM6BZPIKAZ-I-43">
          <mxGeometry y="50" width="180" height="8" as="geometry" />
        </mxCell>
        <mxCell id="VhDTAXXoxM6BZPIKAZ-I-47" value="+receiveData(): String" style="text;align=left;verticalAlign=top;spacingLeft=4;spacingRight=4;overflow=hidden;rotatable=1;points=[[0,0.5],[1,0.5]];portConstraint=eastwest;movable=1;resizable=1;deletable=1;editable=1;locked=0;connectable=1;" vertex="1" parent="VhDTAXXoxM6BZPIKAZ-I-43">
          <mxGeometry y="58" width="180" height="24" as="geometry" />
        </mxCell>
        <mxCell id="VhDTAXXoxM6BZPIKAZ-I-48" value="+UpdateDatabaseServer():" style="text;align=left;verticalAlign=top;spacingLeft=4;spacingRight=4;overflow=hidden;rotatable=1;points=[[0,0.5],[1,0.5]];portConstraint=eastwest;movable=1;resizable=1;deletable=1;editable=1;locked=0;connectable=1;" vertex="1" parent="VhDTAXXoxM6BZPIKAZ-I-43">
          <mxGeometry y="82" width="180" height="24" as="geometry" />
        </mxCell>
        <mxCell id="VhDTAXXoxM6BZPIKAZ-I-49" value="Sends report to Database" style="text;align=left;verticalAlign=top;spacingLeft=4;spacingRight=4;overflow=hidden;rotatable=1;points=[[0,0.5],[1,0.5]];portConstraint=eastwest;movable=1;resizable=1;deletable=1;editable=1;locked=0;connectable=1;" vertex="1" parent="VhDTAXXoxM6BZPIKAZ-I-43">
          <mxGeometry y="106" width="180" height="24" as="geometry" />
        </mxCell>
        <mxCell id="VhDTAXXoxM6BZPIKAZ-I-53" style="edgeStyle=orthogonalEdgeStyle;rounded=0;orthogonalLoop=1;jettySize=auto;html=1;exitX=0;exitY=0.5;exitDx=0;exitDy=0;entryX=0;entryY=0.5;entryDx=0;entryDy=0;" edge="1" parent="WIyWlLk6GJQsqaUBKTNV-1" source="VhDTAXXoxM6BZPIKAZ-I-10" target="VhDTAXXoxM6BZPIKAZ-I-48">
          <mxGeometry relative="1" as="geometry" />
        </mxCell>
        <mxCell id="VhDTAXXoxM6BZPIKAZ-I-57" value="Diagnose" style="swimlane;fontStyle=0;align=center;verticalAlign=top;childLayout=stackLayout;horizontal=1;startSize=26;horizontalStack=0;resizeParent=1;resizeLast=0;collapsible=1;marginBottom=0;rounded=0;shadow=0;strokeWidth=1;" vertex="1" parent="WIyWlLk6GJQsqaUBKTNV-1">
          <mxGeometry x="574" y="342" width="166" height="178" as="geometry">
            <mxRectangle x="340" y="380" width="170" height="26" as="alternateBounds" />
          </mxGeometry>
        </mxCell>
        <mxCell id="VhDTAXXoxM6BZPIKAZ-I-58" value="- diagnosis:Â " style="text;align=left;verticalAlign=top;spacingLeft=4;spacingRight=4;overflow=hidden;rotatable=1;points=[[0,0.5],[1,0.5]];portConstraint=eastwest;movable=1;resizable=1;deletable=1;editable=1;locked=0;connectable=1;" vertex="1" parent="VhDTAXXoxM6BZPIKAZ-I-57">
          <mxGeometry y="26" width="166" height="24" as="geometry" />
        </mxCell>
        <mxCell id="VhDTAXXoxM6BZPIKAZ-I-59" value="" style="line;html=1;strokeWidth=1;align=left;verticalAlign=middle;spacingTop=-1;spacingLeft=3;spacingRight=3;rotatable=1;labelPosition=right;points=[];portConstraint=eastwest;movable=1;resizable=1;deletable=1;editable=1;locked=0;connectable=1;" vertex="1" parent="VhDTAXXoxM6BZPIKAZ-I-57">
          <mxGeometry y="50" width="166" height="8" as="geometry" />
        </mxCell>
        <mxCell id="VhDTAXXoxM6BZPIKAZ-I-60" value="+reportFailure(): void" style="text;align=left;verticalAlign=top;spacingLeft=4;spacingRight=4;overflow=hidden;rotatable=1;points=[[0,0.5],[1,0.5]];portConstraint=eastwest;movable=1;resizable=1;deletable=1;editable=1;locked=0;connectable=1;" vertex="1" parent="VhDTAXXoxM6BZPIKAZ-I-57">
          <mxGeometry y="58" width="166" height="24" as="geometry" />
        </mxCell>
        <mxCell id="VhDTAXXoxM6BZPIKAZ-I-61" value="+rebootSystem(): boolean" style="text;align=left;verticalAlign=top;spacingLeft=4;spacingRight=4;overflow=hidden;rotatable=1;points=[[0,0.5],[1,0.5]];portConstraint=eastwest;movable=1;resizable=1;deletable=1;editable=1;locked=0;connectable=1;" vertex="1" parent="VhDTAXXoxM6BZPIKAZ-I-57">
          <mxGeometry y="82" width="166" height="24" as="geometry" />
        </mxCell>
        <mxCell id="VhDTAXXoxM6BZPIKAZ-I-62" value="+repairSystem(): boolean" style="text;align=left;verticalAlign=top;spacingLeft=4;spacingRight=4;overflow=hidden;rotatable=1;points=[[0,0.5],[1,0.5]];portConstraint=eastwest;movable=1;resizable=1;deletable=1;editable=1;locked=0;connectable=1;" vertex="1" parent="VhDTAXXoxM6BZPIKAZ-I-57">
          <mxGeometry y="106" width="166" height="24" as="geometry" />
        </mxCell>
        <mxCell id="VhDTAXXoxM6BZPIKAZ-I-63" value="+ResumeMission(): void" style="text;align=left;verticalAlign=top;spacingLeft=4;spacingRight=4;overflow=hidden;rotatable=1;points=[[0,0.5],[1,0.5]];portConstraint=eastwest;movable=1;resizable=1;deletable=1;editable=1;locked=0;connectable=1;" vertex="1" parent="VhDTAXXoxM6BZPIKAZ-I-57">
          <mxGeometry y="130" width="166" height="24" as="geometry" />
        </mxCell>
        <mxCell id="VhDTAXXoxM6BZPIKAZ-I-68" value="" style="rhombus;whiteSpace=wrap;html=1;verticalAlign=top;fontStyle=0;startSize=26;rounded=0;shadow=0;strokeWidth=1;" vertex="1" parent="WIyWlLk6GJQsqaUBKTNV-1">
          <mxGeometry x="740" y="380" width="80" height="80" as="geometry" />
        </mxCell>
        <mxCell id="VhDTAXXoxM6BZPIKAZ-I-71" style="edgeStyle=orthogonalEdgeStyle;rounded=0;orthogonalLoop=1;jettySize=auto;html=1;exitX=1;exitY=0.5;exitDx=0;exitDy=0;entryX=0.75;entryY=1;entryDx=0;entryDy=0;" edge="1" parent="WIyWlLk6GJQsqaUBKTNV-1" source="jl5r_qwdWF5hizrky0wu-10" target="VhDTAXXoxM6BZPIKAZ-I-2">
          <mxGeometry relative="1" as="geometry" />
        </mxCell>
        <mxCell id="VhDTAXXoxM6BZPIKAZ-I-72" value="Senor" style="swimlane;fontStyle=0;align=center;verticalAlign=top;childLayout=stackLayout;horizontal=1;startSize=26;horizontalStack=0;resizeParent=1;resizeLast=0;collapsible=1;marginBottom=0;rounded=0;shadow=0;strokeWidth=1;" vertex="1" parent="WIyWlLk6GJQsqaUBKTNV-1">
          <mxGeometry x="1200" y="310" width="176" height="110" as="geometry">
            <mxRectangle x="340" y="380" width="170" height="26" as="alternateBounds" />
          </mxGeometry>
        </mxCell>
        <mxCell id="VhDTAXXoxM6BZPIKAZ-I-73" value="-sensorID: int&#xa;" style="text;align=left;verticalAlign=top;spacingLeft=4;spacingRight=4;overflow=hidden;rotatable=1;points=[[0,0.5],[1,0.5]];portConstraint=eastwest;movable=1;resizable=1;deletable=1;editable=1;locked=0;connectable=1;" vertex="1" parent="VhDTAXXoxM6BZPIKAZ-I-72">
          <mxGeometry y="26" width="176" height="24" as="geometry" />
        </mxCell>
        <mxCell id="VhDTAXXoxM6BZPIKAZ-I-120" style="edgeStyle=orthogonalEdgeStyle;rounded=0;orthogonalLoop=1;jettySize=auto;html=1;" edge="1" parent="VhDTAXXoxM6BZPIKAZ-I-72" source="VhDTAXXoxM6BZPIKAZ-I-79">
          <mxGeometry relative="1" as="geometry">
            <mxPoint x="-20" y="-20" as="targetPoint" />
          </mxGeometry>
        </mxCell>
        <mxCell id="VhDTAXXoxM6BZPIKAZ-I-79" value="-Status: Status" style="text;align=left;verticalAlign=top;spacingLeft=4;spacingRight=4;overflow=hidden;rotatable=1;points=[[0,0.5],[1,0.5]];portConstraint=eastwest;movable=1;resizable=1;deletable=1;editable=1;locked=0;connectable=1;" vertex="1" parent="VhDTAXXoxM6BZPIKAZ-I-72">
          <mxGeometry y="50" width="176" height="24" as="geometry" />
        </mxCell>
        <mxCell id="VhDTAXXoxM6BZPIKAZ-I-75" value="" style="line;html=1;strokeWidth=1;align=left;verticalAlign=middle;spacingTop=-1;spacingLeft=3;spacingRight=3;rotatable=1;labelPosition=right;points=[];portConstraint=eastwest;movable=1;resizable=1;deletable=1;editable=1;locked=0;connectable=1;" vertex="1" parent="VhDTAXXoxM6BZPIKAZ-I-72">
          <mxGeometry y="74" width="176" height="8" as="geometry" />
        </mxCell>
        <mxCell id="VhDTAXXoxM6BZPIKAZ-I-76" value="+returnStatus(): Status" style="text;align=left;verticalAlign=top;spacingLeft=4;spacingRight=4;overflow=hidden;rotatable=1;points=[[0,0.5],[1,0.5]];portConstraint=eastwest;movable=1;resizable=1;deletable=1;editable=1;locked=0;connectable=1;" vertex="1" parent="VhDTAXXoxM6BZPIKAZ-I-72">
          <mxGeometry y="82" width="176" height="24" as="geometry" />
        </mxCell>
        <mxCell id="VhDTAXXoxM6BZPIKAZ-I-81" style="edgeStyle=orthogonalEdgeStyle;rounded=0;orthogonalLoop=1;jettySize=auto;html=1;entryX=0.75;entryY=1;entryDx=0;entryDy=0;" edge="1" parent="WIyWlLk6GJQsqaUBKTNV-1" target="VhDTAXXoxM6BZPIKAZ-I-9">
          <mxGeometry relative="1" as="geometry">
            <mxPoint x="1250" y="420" as="sourcePoint" />
            <Array as="points">
              <mxPoint x="1250" y="530" />
              <mxPoint x="852" y="530" />
            </Array>
          </mxGeometry>
        </mxCell>
        <mxCell id="VhDTAXXoxM6BZPIKAZ-I-82" style="edgeStyle=orthogonalEdgeStyle;rounded=0;orthogonalLoop=1;jettySize=auto;html=1;entryX=1;entryY=0.5;entryDx=0;entryDy=0;exitX=0.52;exitY=1.24;exitDx=0;exitDy=0;exitPerimeter=0;" edge="1" parent="WIyWlLk6GJQsqaUBKTNV-1" source="VhDTAXXoxM6BZPIKAZ-I-76" target="VhDTAXXoxM6BZPIKAZ-I-28">
          <mxGeometry relative="1" as="geometry">
            <mxPoint x="1288" y="430" as="sourcePoint" />
            <Array as="points">
              <mxPoint x="1292" y="540" />
              <mxPoint x="1140" y="540" />
              <mxPoint x="1140" y="72" />
            </Array>
          </mxGeometry>
        </mxCell>
        <mxCell id="VhDTAXXoxM6BZPIKAZ-I-83" value="*...1" style="text;html=1;align=center;verticalAlign=middle;resizable=0;points=[];autosize=1;strokeColor=none;fillColor=none;" vertex="1" parent="WIyWlLk6GJQsqaUBKTNV-1">
          <mxGeometry x="560" y="550" width="40" height="30" as="geometry" />
        </mxCell>
        <mxCell id="VhDTAXXoxM6BZPIKAZ-I-84" value="1.." style="text;html=1;align=center;verticalAlign=middle;resizable=0;points=[];autosize=1;strokeColor=none;fillColor=none;" vertex="1" parent="WIyWlLk6GJQsqaUBKTNV-1">
          <mxGeometry x="1069" y="490" width="40" height="30" as="geometry" />
        </mxCell>
        <mxCell id="VhDTAXXoxM6BZPIKAZ-I-86" value="*...*" style="text;html=1;align=center;verticalAlign=middle;resizable=0;points=[];autosize=1;strokeColor=none;fillColor=none;" vertex="1" parent="WIyWlLk6GJQsqaUBKTNV-1">
          <mxGeometry x="400" y="78" width="40" height="30" as="geometry" />
        </mxCell>
        <mxCell id="VhDTAXXoxM6BZPIKAZ-I-87" value="*...*" style="text;html=1;align=center;verticalAlign=middle;resizable=0;points=[];autosize=1;strokeColor=none;fillColor=none;" vertex="1" parent="WIyWlLk6GJQsqaUBKTNV-1">
          <mxGeometry x="610" y="307" width="40" height="30" as="geometry" />
        </mxCell>
        <mxCell id="VhDTAXXoxM6BZPIKAZ-I-88" value="*...*" style="text;html=1;align=center;verticalAlign=middle;resizable=0;points=[];autosize=1;strokeColor=none;fillColor=none;" vertex="1" parent="WIyWlLk6GJQsqaUBKTNV-1">
          <mxGeometry x="782" y="360" width="40" height="30" as="geometry" />
        </mxCell>
        <mxCell id="VhDTAXXoxM6BZPIKAZ-I-97" style="edgeStyle=orthogonalEdgeStyle;rounded=0;orthogonalLoop=1;jettySize=auto;html=1;entryX=0;entryY=0.5;entryDx=0;entryDy=0;" edge="1" parent="WIyWlLk6GJQsqaUBKTNV-1" source="VhDTAXXoxM6BZPIKAZ-I-89" target="VhDTAXXoxM6BZPIKAZ-I-44">
          <mxGeometry relative="1" as="geometry" />
        </mxCell>
        <mxCell id="VhDTAXXoxM6BZPIKAZ-I-89" value="Repairment" style="swimlane;fontStyle=0;align=center;verticalAlign=top;childLayout=stackLayout;horizontal=1;startSize=26;horizontalStack=0;resizeParent=1;resizeLast=0;collapsible=1;marginBottom=0;rounded=0;shadow=0;strokeWidth=1;" vertex="1" parent="WIyWlLk6GJQsqaUBKTNV-1">
          <mxGeometry x="380" y="-220" width="220" height="160" as="geometry">
            <mxRectangle x="340" y="380" width="170" height="26" as="alternateBounds" />
          </mxGeometry>
        </mxCell>
        <mxCell id="VhDTAXXoxM6BZPIKAZ-I-90" value="-Repair: boolean" style="text;align=left;verticalAlign=top;spacingLeft=4;spacingRight=4;overflow=hidden;rotatable=1;points=[[0,0.5],[1,0.5]];portConstraint=eastwest;movable=1;resizable=1;deletable=1;editable=1;locked=0;connectable=1;" vertex="1" parent="VhDTAXXoxM6BZPIKAZ-I-89">
          <mxGeometry y="26" width="220" height="24" as="geometry" />
        </mxCell>
        <mxCell id="VhDTAXXoxM6BZPIKAZ-I-92" value="" style="line;html=1;strokeWidth=1;align=left;verticalAlign=middle;spacingTop=-1;spacingLeft=3;spacingRight=3;rotatable=1;labelPosition=right;points=[];portConstraint=eastwest;movable=1;resizable=1;deletable=1;editable=1;locked=0;connectable=1;" vertex="1" parent="VhDTAXXoxM6BZPIKAZ-I-89">
          <mxGeometry y="50" width="220" height="8" as="geometry" />
        </mxCell>
        <mxCell id="VhDTAXXoxM6BZPIKAZ-I-93" value="+Checks System Integrity(): String" style="text;align=left;verticalAlign=top;spacingLeft=4;spacingRight=4;overflow=hidden;rotatable=1;points=[[0,0.5],[1,0.5]];portConstraint=eastwest;movable=1;resizable=1;deletable=1;editable=1;locked=0;connectable=1;" vertex="1" parent="VhDTAXXoxM6BZPIKAZ-I-89">
          <mxGeometry y="58" width="220" height="24" as="geometry" />
        </mxCell>
        <mxCell id="VhDTAXXoxM6BZPIKAZ-I-94" value="+PerformsRepairments(): Boolean" style="text;align=left;verticalAlign=top;spacingLeft=4;spacingRight=4;overflow=hidden;rotatable=1;points=[[0,0.5],[1,0.5]];portConstraint=eastwest;movable=1;resizable=1;deletable=1;editable=1;locked=0;connectable=1;" vertex="1" parent="VhDTAXXoxM6BZPIKAZ-I-89">
          <mxGeometry y="82" width="220" height="24" as="geometry" />
        </mxCell>
        <mxCell id="VhDTAXXoxM6BZPIKAZ-I-95" value="+SendReportToDatabase(): String" style="text;align=left;verticalAlign=top;spacingLeft=4;spacingRight=4;overflow=hidden;rotatable=1;points=[[0,0.5],[1,0.5]];portConstraint=eastwest;movable=1;resizable=1;deletable=1;editable=1;locked=0;connectable=1;" vertex="1" parent="VhDTAXXoxM6BZPIKAZ-I-89">
          <mxGeometry y="106" width="220" height="24" as="geometry" />
        </mxCell>
        <mxCell id="VhDTAXXoxM6BZPIKAZ-I-100" value="1...1" style="text;html=1;align=center;verticalAlign=middle;resizable=0;points=[];autosize=1;strokeColor=none;fillColor=none;" vertex="1" parent="WIyWlLk6GJQsqaUBKTNV-1">
          <mxGeometry x="690" y="-140" width="50" height="30" as="geometry" />
        </mxCell>
        <mxCell id="VhDTAXXoxM6BZPIKAZ-I-98" value="*...1" style="text;html=1;align=center;verticalAlign=middle;resizable=0;points=[];autosize=1;strokeColor=none;fillColor=none;" vertex="1" parent="WIyWlLk6GJQsqaUBKTNV-1">
          <mxGeometry x="446" y="-50" width="220" height="30" as="geometry" />
        </mxCell>
        <mxCell id="VhDTAXXoxM6BZPIKAZ-I-101" value="*...*" style="text;html=1;align=center;verticalAlign=middle;resizable=0;points=[];autosize=1;strokeColor=none;fillColor=none;" vertex="1" parent="WIyWlLk6GJQsqaUBKTNV-1">
          <mxGeometry x="760" y="99" width="40" height="30" as="geometry" />
        </mxCell>
        <mxCell id="VhDTAXXoxM6BZPIKAZ-I-103" value="*...*" style="text;html=1;align=center;verticalAlign=middle;resizable=0;points=[];autosize=1;strokeColor=none;fillColor=none;" vertex="1" parent="WIyWlLk6GJQsqaUBKTNV-1">
          <mxGeometry x="1221" y="99" width="40" height="30" as="geometry" />
        </mxCell>
        <mxCell id="VhDTAXXoxM6BZPIKAZ-I-104" value="*...*" style="text;html=1;align=center;verticalAlign=middle;resizable=0;points=[];autosize=1;strokeColor=none;fillColor=none;" vertex="1" parent="WIyWlLk6GJQsqaUBKTNV-1">
          <mxGeometry x="666" y="140" width="40" height="30" as="geometry" />
        </mxCell>
        <mxCell id="VhDTAXXoxM6BZPIKAZ-I-105" value="*...*" style="text;html=1;align=center;verticalAlign=middle;resizable=0;points=[];autosize=1;strokeColor=none;fillColor=none;" vertex="1" parent="WIyWlLk6GJQsqaUBKTNV-1">
          <mxGeometry x="940" y="-50" width="40" height="30" as="geometry" />
        </mxCell>
        <mxCell id="VhDTAXXoxM6BZPIKAZ-I-106" value="*...*" style="text;html=1;align=center;verticalAlign=middle;resizable=0;points=[];autosize=1;strokeColor=none;fillColor=none;" vertex="1" parent="WIyWlLk6GJQsqaUBKTNV-1">
          <mxGeometry x="962" y="-120" width="40" height="30" as="geometry" />
        </mxCell>
        <mxCell id="VhDTAXXoxM6BZPIKAZ-I-107" value="*...1" style="text;html=1;align=center;verticalAlign=middle;resizable=0;points=[];autosize=1;strokeColor=none;fillColor=none;rotation=90;" vertex="1" parent="WIyWlLk6GJQsqaUBKTNV-1">
          <mxGeometry x="1020" y="121.5" width="40" height="30" as="geometry" />
        </mxCell>
        <mxCell id="VhDTAXXoxM6BZPIKAZ-I-108" value="*...1" style="text;html=1;align=center;verticalAlign=middle;resizable=0;points=[];autosize=1;strokeColor=none;fillColor=none;" vertex="1" parent="WIyWlLk6GJQsqaUBKTNV-1">
          <mxGeometry x="1076" y="210" width="40" height="30" as="geometry" />
        </mxCell>
        <mxCell id="VhDTAXXoxM6BZPIKAZ-I-109" value="*...1" style="text;html=1;align=center;verticalAlign=middle;resizable=0;points=[];autosize=1;strokeColor=none;fillColor=none;" vertex="1" parent="WIyWlLk6GJQsqaUBKTNV-1">
          <mxGeometry x="930" y="203" width="40" height="30" as="geometry" />
        </mxCell>
        <mxCell id="VhDTAXXoxM6BZPIKAZ-I-110" value="*...*" style="text;html=1;align=center;verticalAlign=middle;resizable=0;points=[];autosize=1;strokeColor=none;fillColor=none;" vertex="1" parent="WIyWlLk6GJQsqaUBKTNV-1">
          <mxGeometry x="1210" y="420" width="40" height="30" as="geometry" />
        </mxCell>
        <mxCell id="VhDTAXXoxM6BZPIKAZ-I-96" style="edgeStyle=orthogonalEdgeStyle;rounded=0;orthogonalLoop=1;jettySize=auto;html=1;entryX=0.75;entryY=1;entryDx=0;entryDy=0;" edge="1" parent="WIyWlLk6GJQsqaUBKTNV-1" source="jl5r_qwdWF5hizrky0wu-4" target="VhDTAXXoxM6BZPIKAZ-I-89">
          <mxGeometry relative="1" as="geometry">
            <mxPoint x="625.9999999999998" y="45" as="targetPoint" />
          </mxGeometry>
        </mxCell>
        <mxCell id="VhDTAXXoxM6BZPIKAZ-I-99" value="Performs" style="edgeLabel;html=1;align=center;verticalAlign=middle;resizable=0;points=[];" connectable="0" vertex="1" parent="VhDTAXXoxM6BZPIKAZ-I-96">
          <mxGeometry x="-0.2752" y="-2" relative="1" as="geometry">
            <mxPoint as="offset" />
          </mxGeometry>
        </mxCell>
        <mxCell id="VhDTAXXoxM6BZPIKAZ-I-115" style="edgeStyle=orthogonalEdgeStyle;rounded=0;orthogonalLoop=1;jettySize=auto;html=1;entryX=0.28;entryY=0.016;entryDx=0;entryDy=0;entryPerimeter=0;" edge="1" parent="WIyWlLk6GJQsqaUBKTNV-1" source="VhDTAXXoxM6BZPIKAZ-I-49" target="VhDTAXXoxM6BZPIKAZ-I-23">
          <mxGeometry relative="1" as="geometry">
            <Array as="points">
              <mxPoint x="950" y="-40" />
              <mxPoint x="950" y="-40" />
            </Array>
          </mxGeometry>
        </mxCell>
        <mxCell id="VhDTAXXoxM6BZPIKAZ-I-116" style="edgeStyle=orthogonalEdgeStyle;rounded=0;orthogonalLoop=1;jettySize=auto;html=1;exitX=0;exitY=0.5;exitDx=0;exitDy=0;entryX=0.044;entryY=1;entryDx=0;entryDy=0;entryPerimeter=0;" edge="1" parent="WIyWlLk6GJQsqaUBKTNV-1" source="VhDTAXXoxM6BZPIKAZ-I-24" target="VhDTAXXoxM6BZPIKAZ-I-49">
          <mxGeometry relative="1" as="geometry" />
        </mxCell>
        <mxCell id="VhDTAXXoxM6BZPIKAZ-I-117" value="*...*" style="text;html=1;align=center;verticalAlign=middle;resizable=0;points=[];autosize=1;strokeColor=none;fillColor=none;" vertex="1" parent="WIyWlLk6GJQsqaUBKTNV-1">
          <mxGeometry x="827" y="-10" width="40" height="30" as="geometry" />
        </mxCell>
        <mxCell id="VhDTAXXoxM6BZPIKAZ-I-119" style="edgeStyle=orthogonalEdgeStyle;rounded=0;orthogonalLoop=1;jettySize=auto;html=1;exitX=1;exitY=0.5;exitDx=0;exitDy=0;entryX=1.069;entryY=0.892;entryDx=0;entryDy=0;entryPerimeter=0;" edge="1" parent="WIyWlLk6GJQsqaUBKTNV-1" source="VhDTAXXoxM6BZPIKAZ-I-48" target="VhDTAXXoxM6BZPIKAZ-I-103">
          <mxGeometry relative="1" as="geometry" />
        </mxCell>
        <mxCell id="VhDTAXXoxM6BZPIKAZ-I-121" value="*...*" style="text;html=1;align=center;verticalAlign=middle;resizable=0;points=[];autosize=1;strokeColor=none;fillColor=none;" vertex="1" parent="WIyWlLk6GJQsqaUBKTNV-1">
          <mxGeometry x="1290" y="420" width="40" height="30" as="geometry" />
        </mxCell>
        <mxCell id="VhDTAXXoxM6BZPIKAZ-I-122" value="*...*" style="text;html=1;align=center;verticalAlign=middle;resizable=0;points=[];autosize=1;strokeColor=none;fillColor=none;" vertex="1" parent="WIyWlLk6GJQsqaUBKTNV-1">
          <mxGeometry x="1160" y="370" width="40" height="30" as="geometry" />
        </mxCell>
      </root>
    </mxGraphModel>
  </diagram>
</mxfile>
